<svg width="45" height="41" viewBox="0 0 45 41" fill="none" xmlns="http://www.w3.org/2000/svg">
<path d="M6.38911 0.0174976C4.18326 0.0174976 3.423 0.245947 2.58598 0.702847C1.7764 1.13154 1.11376 1.79287 0.683477 2.6016C0.22845 3.4405 0 4.19888 0 6.47963V23.589C0 25.7949 0.22845 26.557 0.683477 27.3922C1.14038 28.2292 1.75083 28.8378 2.58598 29.2947C3.34623 29.7516 4.10835 29.9781 6.38911 29.9781H11.4824L13.6134 27.4689H5.62886C5.02028 27.5457 4.3368 27.4671 3.72636 27.1618C3.34623 27.012 3.04101 26.6319 2.81256 26.2518C2.58411 25.6432 2.43243 25.0346 2.5092 24.3493V5.79616C2.4343 5.18758 2.5092 4.5041 2.81256 3.89553C2.96423 3.5154 3.34623 3.21205 3.72636 2.9836C4.33493 2.75515 4.94351 2.6016 5.62886 2.6765H39.0855C39.6941 2.6016 40.3776 2.68025 40.988 2.9836C41.3682 3.13715 41.6696 3.5154 41.8981 3.89553C42.1265 4.50223 42.2782 5.11268 42.2014 5.79616V24.4279C42.2763 25.0346 42.2014 25.72 41.8981 26.3286C41.7464 26.7087 41.3682 27.012 40.988 27.2386C40.3795 27.4671 39.7709 27.6187 39.0855 27.5438H31.101L33.2301 30.0549L38.4788 29.98C40.7596 29.98 41.518 29.7516 42.355 29.2947C43.1651 28.865 43.8278 28.2023 44.2575 27.3922C44.7125 26.6319 44.941 25.8698 44.941 23.5909V6.47776C44.941 4.19701 44.7125 3.43863 44.2575 2.6016C43.8275 1.79217 43.1648 1.13016 42.355 0.700975C41.518 0.244075 40.7596 0.015625 38.4788 0.015625H6.38911V0.0174976ZM22.2139 22.8587C22.0802 22.8643 21.9491 22.8984 21.8296 22.9588C21.7101 23.0192 21.6049 23.1045 21.5211 23.2089L8.21484 38.4926C8.06184 38.6585 7.97927 38.8774 7.98451 39.103C7.98004 39.2241 8.00062 39.3449 8.04499 39.4577C8.08935 39.5705 8.15653 39.6729 8.24232 39.7585C8.32811 39.8441 8.43066 39.9111 8.54354 39.9552C8.65642 39.9993 8.7772 40.0197 8.89831 40.015H35.6625C35.891 40.015 36.1213 39.9401 36.273 39.7884C36.6531 39.4832 36.655 38.8727 36.3498 38.4926L23.0416 23.2089L22.9648 23.134C22.7578 22.9528 22.4909 22.8547 22.2158 22.8587H22.2139Z" fill="#767676"/>
</svg>
