<svg width="50" height="40" viewBox="0 0 50 40" fill="none" xmlns="http://www.w3.org/2000/svg">
<path d="M46.25 2.11397C45.0788 1.25928 43.7064 0.640114 42.2302 0.300426C40.7539 -0.0392617 39.2101 -0.0911355 37.7083 0.148488L29.7458 1.41033C27.9075 1.70495 26.236 2.53039 25 3.754C23.7607 2.52828 22.0845 1.70265 20.2417 1.41033L12.2917 0.148488C10.7899 -0.0913452 9.24611 -0.0401511 7.76953 0.298446C6.29296 0.637043 4.91972 1.25477 3.74701 2.10789C2.57431 2.96101 1.6308 4.02867 0.983296 5.23531C0.335788 6.44194 0.000101693 7.75804 0 9.09045V28.7144C0.0001197 30.8431 0.856201 32.9044 2.41903 34.5388C3.98185 36.1732 6.15231 37.2771 8.55208 37.6582L21.6479 39.7364C23.8645 40.0879 26.1355 40.0879 28.3521 39.7364L41.4583 37.6582C43.8562 37.2752 46.0242 36.1705 47.585 34.5362C49.1457 32.902 50.0003 30.8418 50 28.7144V9.09045C50.0009 7.75851 49.6654 6.44276 49.0172 5.23692C48.369 4.03107 47.4242 2.96478 46.25 2.11397ZM22.9167 36.2327C22.7417 36.2109 22.5667 36.1854 22.3917 36.1581L9.29791 34.0817C7.85784 33.8531 6.5554 33.1906 5.61768 32.2097C4.67996 31.2288 4.16645 29.9918 4.16667 28.7144V9.09045C4.16667 7.64379 4.82515 6.25638 5.99725 5.23344C7.16935 4.2105 8.75906 3.63581 10.4167 3.63581C10.7939 3.6366 11.1704 3.66641 11.5417 3.72491L19.5 4.99765C20.4575 5.15057 21.3235 5.59125 21.9476 6.24321C22.5717 6.89517 22.9146 7.71725 22.9167 8.5668V36.2327ZM45.8333 28.7144C45.8335 29.9918 45.32 31.2288 44.3823 32.2097C43.4446 33.1906 42.1422 33.8531 40.7021 34.0817L27.6083 36.1581C27.4333 36.1854 27.2583 36.2109 27.0833 36.2327V8.5668C27.0832 7.71517 27.4255 6.89051 28.0507 6.2366C28.6758 5.58268 29.5441 5.141 30.5042 4.98856L38.4646 3.71582C39.3661 3.57267 40.2926 3.60427 41.1786 3.80838C42.0645 4.01249 42.8882 4.38412 43.5913 4.89693C44.2944 5.40975 44.8597 6.05122 45.2471 6.7759C45.6346 7.50059 45.8347 8.29076 45.8333 9.09045V28.7144Z" fill="#767676"/>
</svg>
