<svg width="123" height="81" viewBox="0 0 123 81" fill="none" xmlns="http://www.w3.org/2000/svg">
<g clip-path="url(#clip0_301_21)">
<path fill-rule="evenodd" clip-rule="evenodd" d="M51.57 57.1001C55.4 60.5501 72.44 63.1001 76.66 65.4501C76.9021 65.5861 77.1358 65.7363 77.36 65.9001C80.26 65.1501 82.85 64.3001 84.21 63.0701C84.1691 62.2689 84.0142 61.4776 83.75 60.7201C80.9904 58.1074 79.3642 54.5176 79.22 50.7201C76.39 51.0201 75.93 39.8001 79.22 43.6001L79.03 42.9301C78.6258 42.5514 78.3704 42.0406 78.31 41.4901V34.3801L89.24 37.7201C91.2822 38.17 93.3978 38.17 95.44 37.7201L106.88 34.4201L107.07 41.4201C107.02 42.0107 106.835 42.582 106.53 43.0901C106.266 43.4437 105.924 43.7313 105.53 43.9301V44.0501C108.8 41.5201 107.53 52.0501 104.42 51.7801C104.405 54.948 103.19 57.9925 101.02 60.3001L100.54 60.7801C100.256 61.5203 100.113 62.3073 100.12 63.1001V63.1001C102.98 65.6801 115.75 67.6001 118.9 69.3601C122.9 71.5801 121.99 76.9201 122.9 80.8701H0C1.18 75.6501 0 68.4101 5.31 65.4901C11.13 62.2601 25.85 61.2401 30.4 57.1401C30.3426 56.0727 30.1338 55.0188 29.78 54.0101C26.0899 50.5138 23.9178 45.71 23.73 40.6301C20 41.0001 19.33 26.0001 23.73 31.0001C23.57 30.4401 23.42 29.9201 23.29 29.4301C22.5923 28.895 22.1297 28.1098 22 27.2401V17.5701L37 22.1501C39.8006 22.7591 42.6994 22.7591 45.5 22.1501L61.18 17.6201L61.44 27.1601C61.3691 27.9709 61.1125 28.7545 60.69 29.4501C60.2632 30.0066 59.6977 30.4411 59.05 30.7101C58.97 31.0201 58.88 31.3301 58.78 31.6601C63.16 28.2901 61.41 42.3001 57.31 42.0001C57.2837 46.2328 55.6626 50.2999 52.77 53.3901L52.12 54.0301C51.7444 55.0164 51.5578 56.0647 51.57 57.1201V57.1001ZM111.74 30.3501V37.9101H112C112.088 37.9101 112.171 37.9449 112.233 38.0067C112.295 38.0686 112.33 38.1526 112.33 38.2401V40.5301C112.33 40.6186 112.296 40.7036 112.234 40.767C112.172 40.8305 112.088 40.8675 112 40.8701H111.73V41.6701C111.899 41.7006 112.051 41.7895 112.161 41.9211C112.27 42.0527 112.33 42.2187 112.33 42.3901V42.3901C112.33 42.5863 112.252 42.7746 112.113 42.9133C111.974 43.0521 111.786 43.1301 111.59 43.1301H110.27C110.074 43.1301 109.886 43.0521 109.747 42.9133C109.608 42.7746 109.53 42.5863 109.53 42.3901V42.3901C109.53 42.2173 109.591 42.0501 109.703 41.9183C109.815 41.7864 109.97 41.6985 110.14 41.6701V40.8701H109.87C109.78 40.8701 109.693 40.8343 109.63 40.7705C109.566 40.7067 109.53 40.6203 109.53 40.5301V38.2401C109.533 38.1517 109.57 38.0677 109.633 38.0061C109.697 37.9445 109.782 37.91 109.87 37.9101H110.14V30.8501L96.22 35.1801C93.7347 35.8 91.1353 35.8 88.65 35.1801L73.28 30.5901L71.89 30.1701C70.16 29.4701 70.59 27.8001 72.2 27.4201L89.59 22.2301C91.3414 21.6815 93.2186 21.6815 94.97 22.2301L112 27.3601C113.86 27.8101 114.22 29.5301 112.06 30.2401L111.7 30.3501H111.74ZM67.8 11.6901V22.4101H68.17C68.2903 22.4101 68.4058 22.4571 68.4918 22.5413C68.5778 22.6254 68.6274 22.7398 68.63 22.8601V26.0001C68.6274 26.1203 68.5778 26.2348 68.4918 26.3189C68.4058 26.403 68.2903 26.4501 68.17 26.4501H67.8V27.5501C68.0348 27.5906 68.2474 27.7135 68.3996 27.8969C68.5518 28.0802 68.6335 28.3119 68.63 28.5501C68.63 28.8153 68.5246 29.0697 68.3371 29.2572C68.1496 29.4447 67.8952 29.5501 67.63 29.5501H65.8C65.5348 29.5501 65.2804 29.4447 65.0929 29.2572C64.9054 29.0697 64.8 28.8153 64.8 28.5501C64.7965 28.3119 64.8782 28.0802 65.0304 27.8969C65.1826 27.7135 65.3952 27.5906 65.63 27.5501V26.4501H65.26C65.1397 26.4501 65.0242 26.403 64.9382 26.3189C64.8522 26.2348 64.8026 26.1203 64.8 26.0001V22.8601C64.8026 22.7398 64.8522 22.6254 64.9382 22.5413C65.0242 22.4571 65.1397 22.4101 65.26 22.4101H65.63V12.4101L46.53 18.3101C43.125 19.155 39.565 19.155 36.16 18.3101L15.1 12.0001L13.2 11.4301C10.82 10.4301 11.42 8.18009 13.63 7.66009L37.45 0.570087C39.8486 -0.185146 42.4214 -0.185146 44.82 0.570087L68.22 7.57009C70.76 8.18009 71.22 10.5701 68.3 11.5101L67.8 11.6601V11.6901Z" fill="#767676"/>
</g>
<defs>
<clipPath id="clip0_301_21">
<rect width="122.88" height="80.8" fill="white"/>
</clipPath>
</defs>
</svg>
