<svg width="40" height="40" viewBox="0 0 40 40" fill="none" xmlns="http://www.w3.org/2000/svg">
<path d="M8.80198 0.0291549H31.1341C36.0653 -0.00663933 40 3.90862 40 8.8678V31.1815C40 36.0613 36.0653 40.0415 31.1341 39.9997H8.80198C4.03583 39.9997 0.0421143 36.0613 0.0421143 31.1815V8.8678C0.0421143 3.90862 4.03583 -0.062853 8.80198 0.0291549Z" fill="#767676"/>
<path d="M22.7115 5.94434C35.8956 14.9283 31.6368 24.8774 31.6368 24.8774C31.6368 24.8774 35.3009 29.0668 33.801 32.74C33.801 32.74 32.2421 30.1899 29.7017 30.1899C27.1554 30.1899 25.6303 32.74 20.6655 32.74C9.36234 32.74 4.19971 23.307 4.19971 23.307C14.2252 30.1363 21.2302 25.2942 21.2302 25.2942C16.6362 22.6324 6.85998 10.0765 6.85998 10.0765C15.307 17.1754 18.8988 19.0556 18.8988 19.0556C16.776 17.366 10.7297 8.59383 10.7297 8.59383C15.6552 13.4901 25.3149 20.4285 25.3149 20.4285C27.9744 12.732 22.7116 5.94434 22.7116 5.94434H22.7115Z" fill="#FEFEFE"/>
</svg>
